<svg xmlns="http://www.w3.org/2000/svg" xmlns:xlink="http://www.w3.org/1999/xlink" width="1920" zoomAndPan="magnify" viewBox="0 0 1440 487.499991" height="650" preserveAspectRatio="xMidYMid meet" version="1.0"><defs><g/></defs><g fill="#e8f038" fill-opacity="1"><g transform="translate(184.330624, 272.965963)"><g><path d="M 163.8125 -20.46875 L 143.328125 0 L 36.859375 0 L 16.375 -20.46875 L 16.375 -102.375 L 1.03125 -102.375 L 1.03125 -143.328125 L 57.328125 -143.328125 L 57.328125 -40.953125 L 122.859375 -40.953125 L 122.859375 -143.328125 L 163.8125 -143.328125 Z M 163.8125 -20.46875 "/></g></g></g><g fill="#e8f038" fill-opacity="1"><g transform="translate(358.380528, 272.965963)"><g><path d="M 153.578125 0 L 112.625 0 L 57.328125 -74.734375 L 57.328125 0 L 16.375 0 L 16.375 -102.375 L 1.03125 -102.375 L 1.03125 -143.328125 L 57.328125 -143.328125 L 112.625 -68.59375 L 112.625 -143.328125 L 153.578125 -143.328125 Z M 153.578125 0 "/></g></g></g><g fill="#e8f038" fill-opacity="1"><g transform="translate(522.192243, 272.965963)"><g><path d="M 147.4375 0 L 30.71875 0 L 10.234375 -20.46875 L 10.234375 -122.859375 L 30.71875 -143.328125 L 147.4375 -143.328125 L 167.90625 -122.859375 L 167.90625 -20.46875 Z M 126.953125 -40.953125 L 126.953125 -102.375 L 51.1875 -102.375 L 51.1875 -40.953125 Z M 126.953125 -40.953125 "/></g></g></g><g fill="#e8f038" fill-opacity="1"><g transform="translate(700.337447, 272.965963)"><g><path d="M 134.125 0 L 10.234375 0 L 10.234375 -40.953125 L 113.640625 -40.953125 L 113.640625 -51.1875 L 30.71875 -51.1875 L 10.234375 -71.671875 L 10.234375 -122.859375 L 30.71875 -143.328125 L 154.59375 -143.328125 L 154.59375 -102.375 L 51.1875 -102.375 L 51.1875 -92.140625 L 134.125 -92.140625 L 154.59375 -71.671875 L 154.59375 -20.46875 Z M 134.125 0 "/></g></g></g><g fill="#e8f038" fill-opacity="1"><g transform="translate(865.17295, 272.965963)"><g><path d="M 51.1875 0 L 10.234375 0 L 10.234375 -143.328125 L 51.1875 -143.328125 Z M 51.1875 0 "/></g></g></g><g fill="#e8f038" fill-opacity="1"><g transform="translate(926.602342, 272.965963)"><g><path d="M 98.5 0 L 57.546875 0 L 57.546875 -102.375 L 1.03125 -102.375 L 1.03125 -143.328125 L 155 -143.328125 L 155 -102.375 L 98.5 -102.375 Z M 98.5 0 "/></g></g></g><g fill="#e8f038" fill-opacity="1"><g transform="translate(1082.632959, 272.965963)"><g><path d="M 157.671875 0 L 30.71875 0 L 10.234375 -20.46875 L 10.234375 -122.859375 L 30.71875 -143.328125 L 142.3125 -143.328125 L 162.78125 -122.859375 L 162.78125 -71.671875 L 142.3125 -51.1875 L 61.421875 -51.1875 L 61.421875 -92.140625 L 121.828125 -92.140625 L 121.828125 -102.375 L 51.1875 -102.375 L 51.1875 -40.953125 L 157.671875 -40.953125 Z M 157.671875 0 "/></g></g></g><g fill="#e8f038" fill-opacity="1"><g transform="translate(332.44045, 347.641343)"><g><path d="M 8.46875 -25.671875 L 8.515625 0 L 4.234375 0 L 4.234375 -25.671875 Z M 8.46875 -25.671875 "/></g></g></g><g fill="#e8f038" fill-opacity="1"><g transform="translate(345.19849, 347.641343)"><g/></g></g><g fill="#e8f038" fill-opacity="1"><g transform="translate(376.961249, 347.641343)"><g><path d="M 42.828125 -21.921875 C 45.328125 -19.335938 46.578125 -16.300781 46.578125 -12.8125 C 46.578125 -9.351562 45.328125 -6.335938 42.828125 -3.765625 C 40.316406 -1.253906 37.300781 0 33.78125 0 L 4.234375 0 L 4.234375 -25.671875 L 33.78125 -25.671875 C 37.300781 -25.671875 40.316406 -24.421875 42.828125 -21.921875 Z M 39.8125 -6.78125 C 41.46875 -8.4375 42.296875 -10.445312 42.296875 -12.8125 C 42.296875 -15.207031 41.46875 -17.238281 39.8125 -18.90625 C 38.15625 -20.5625 36.144531 -21.390625 33.78125 -21.390625 L 8.515625 -21.390625 L 8.515625 -4.28125 L 33.78125 -4.28125 C 36.144531 -4.28125 38.15625 -5.113281 39.8125 -6.78125 Z M 39.8125 -6.78125 "/></g></g></g><g fill="#e8f038" fill-opacity="1"><g transform="translate(427.781658, 347.641343)"><g><path d="M 44.359375 -23.5 C 45.835938 -22.019531 46.578125 -20.253906 46.578125 -18.203125 L 46.578125 -7.46875 C 46.578125 -5.488281 45.835938 -3.722656 44.359375 -2.171875 C 42.953125 -0.722656 41.207031 0 39.125 0 L 11.75 0 C 9.632812 0 7.867188 -0.722656 6.453125 -2.171875 C 4.972656 -3.648438 4.234375 -5.414062 4.234375 -7.46875 L 4.234375 -18.3125 C 4.234375 -20.257812 4.972656 -21.988281 6.453125 -23.5 C 7.867188 -24.945312 9.617188 -25.671875 11.703125 -25.671875 L 39.0625 -25.671875 C 41.144531 -25.671875 42.910156 -24.945312 44.359375 -23.5 Z M 41.34375 -5.234375 C 41.976562 -5.867188 42.296875 -6.613281 42.296875 -7.46875 L 42.296875 -18.203125 C 42.296875 -19.085938 41.976562 -19.847656 41.34375 -20.484375 C 40.707031 -21.117188 39.945312 -21.4375 39.0625 -21.4375 L 11.75 -21.4375 C 10.863281 -21.4375 10.101562 -21.117188 9.46875 -20.484375 C 8.832031 -19.847656 8.515625 -19.085938 8.515625 -18.203125 L 8.515625 -7.46875 C 8.515625 -6.582031 8.832031 -5.820312 9.46875 -5.1875 C 9.96875 -4.695312 10.515625 -4.394531 11.109375 -4.28125 L 39.0625 -4.28125 C 39.945312 -4.28125 40.707031 -4.597656 41.34375 -5.234375 Z M 41.34375 -5.234375 "/></g></g></g><g fill="#e8f038" fill-opacity="1"><g transform="translate(478.602068, 347.641343)"><g/></g></g><g fill="#e8f038" fill-opacity="1"><g transform="translate(510.364826, 347.641343)"><g><path d="M 8.46875 -18.640625 L 8.515625 -25.671875 L 4.234375 -25.671875 L 4.234375 -18.640625 Z M 8.46875 -14.34375 L 8.515625 0 L 4.234375 0 L 4.234375 -14.34375 Z M 8.46875 -14.34375 "/></g></g></g><g fill="#e8f038" fill-opacity="1"><g transform="translate(523.122866, 347.641343)"><g><path d="M 46.578125 -25.671875 L 4.234375 -25.671875 L 4.234375 -21.390625 L 23.34375 -21.390625 L 23.34375 0 L 27.640625 0 L 27.640625 -21.390625 L 46.578125 -21.390625 Z M 46.578125 -25.671875 "/></g></g></g><g fill="#e8f038" fill-opacity="1"><g transform="translate(573.943276, 347.641343)"><g/></g></g><g fill="#e8f038" fill-opacity="1"><g transform="translate(605.706046, 347.641343)"><g><path d="M 54.953125 -23.5625 C 56.429688 -22.039062 57.171875 -20.273438 57.171875 -18.265625 L 57.171875 0 L 52.890625 0 L 52.890625 -18.265625 C 52.890625 -19.109375 52.570312 -19.847656 51.9375 -20.484375 C 51.300781 -21.117188 50.539062 -21.4375 49.65625 -21.4375 L 32.828125 -21.4375 L 32.875 0 L 28.59375 0 L 28.59375 -21.4375 L 11.109375 -21.4375 C 10.515625 -21.332031 9.96875 -21.035156 9.46875 -20.546875 C 8.832031 -19.910156 8.515625 -19.148438 8.515625 -18.265625 L 8.515625 0 L 4.234375 0 L 4.234375 -18.265625 C 4.234375 -20.273438 4.972656 -22.039062 6.453125 -23.5625 C 7.867188 -25.007812 9.632812 -25.734375 11.75 -25.734375 L 49.703125 -25.734375 C 51.785156 -25.734375 53.535156 -25.007812 54.953125 -23.5625 Z M 54.953125 -23.5625 "/></g></g></g><g fill="#e8f038" fill-opacity="1"><g transform="translate(667.114038, 347.641343)"><g><path d="M 42.296875 -25.671875 L 46.578125 -25.671875 L 46.578125 -7.359375 C 46.578125 -5.453125 45.835938 -3.722656 44.359375 -2.171875 C 42.953125 -0.722656 41.207031 0 39.125 0 L 11.75 0 C 9.664062 0 7.898438 -0.722656 6.453125 -2.171875 C 4.972656 -3.648438 4.234375 -5.414062 4.234375 -7.46875 L 8.515625 -7.46875 C 8.515625 -6.582031 8.832031 -5.820312 9.46875 -5.1875 C 10.101562 -4.550781 10.863281 -4.234375 11.75 -4.234375 L 39.0625 -4.234375 C 39.945312 -4.234375 40.707031 -4.550781 41.34375 -5.1875 C 41.976562 -5.820312 42.296875 -6.582031 42.296875 -7.46875 L 42.296875 -10.6875 L 11.75 -10.6875 C 9.664062 -10.6875 7.898438 -11.429688 6.453125 -12.921875 C 4.972656 -14.367188 4.234375 -16.128906 4.234375 -18.203125 L 4.234375 -25.671875 L 8.515625 -25.671875 L 8.515625 -18.203125 C 8.515625 -17.285156 8.832031 -16.53125 9.46875 -15.9375 C 10.101562 -15.300781 10.863281 -14.984375 11.75 -14.984375 L 42.296875 -14.984375 Z M 42.296875 -25.671875 "/></g></g></g><g fill="#e8f038" fill-opacity="1"><g transform="translate(717.934424, 347.641343)"><g/></g></g><g fill="#e8f038" fill-opacity="1"><g transform="translate(749.697194, 347.641343)"><g><path d="M 44.359375 -23.5 C 45.835938 -22.019531 46.578125 -20.253906 46.578125 -18.203125 L 46.578125 -7.46875 C 46.578125 -5.488281 45.835938 -3.722656 44.359375 -2.171875 C 42.953125 -0.722656 41.207031 0 39.125 0 L 11.75 0 C 9.632812 0 7.867188 -0.722656 6.453125 -2.171875 C 4.972656 -3.648438 4.234375 -5.414062 4.234375 -7.46875 L 4.234375 -18.3125 C 4.234375 -20.257812 4.972656 -21.988281 6.453125 -23.5 C 7.867188 -24.945312 9.617188 -25.671875 11.703125 -25.671875 L 39.0625 -25.671875 C 41.144531 -25.671875 42.910156 -24.945312 44.359375 -23.5 Z M 41.34375 -5.234375 C 41.976562 -5.867188 42.296875 -6.613281 42.296875 -7.46875 L 42.296875 -18.203125 C 42.296875 -19.085938 41.976562 -19.847656 41.34375 -20.484375 C 40.707031 -21.117188 39.945312 -21.4375 39.0625 -21.4375 L 11.75 -21.4375 C 10.863281 -21.4375 10.101562 -21.117188 9.46875 -20.484375 C 8.832031 -19.847656 8.515625 -19.085938 8.515625 -18.203125 L 8.515625 -7.46875 C 8.515625 -6.582031 8.832031 -5.820312 9.46875 -5.1875 C 9.96875 -4.695312 10.515625 -4.394531 11.109375 -4.28125 L 39.0625 -4.28125 C 39.945312 -4.28125 40.707031 -4.597656 41.34375 -5.234375 Z M 41.34375 -5.234375 "/></g></g></g><g fill="#e8f038" fill-opacity="1"><g transform="translate(800.517626, 347.641343)"><g><path d="M 52.890625 -25.671875 L 57.171875 -25.671875 L 57.171875 -7.46875 C 57.171875 -5.488281 56.429688 -3.722656 54.953125 -2.171875 C 53.535156 -0.722656 51.785156 0 49.703125 0 L 11.75 0 C 9.632812 0 7.867188 -0.722656 6.453125 -2.171875 C 4.972656 -3.648438 4.234375 -5.414062 4.234375 -7.46875 L 4.234375 -25.671875 L 8.515625 -25.671875 L 8.515625 -7.46875 C 8.515625 -6.582031 8.832031 -5.820312 9.46875 -5.1875 C 9.96875 -4.695312 10.515625 -4.394531 11.109375 -4.28125 L 28.59375 -4.28125 L 28.59375 -25.671875 L 32.875 -25.671875 L 32.828125 -4.28125 L 49.65625 -4.28125 C 50.539062 -4.28125 51.300781 -4.597656 51.9375 -5.234375 C 52.570312 -5.867188 52.890625 -6.613281 52.890625 -7.46875 Z M 52.890625 -25.671875 "/></g></g></g><g fill="#e8f038" fill-opacity="1"><g transform="translate(861.925618, 347.641343)"><g><path d="M 42.296875 0 L 42.296875 -18.265625 C 42.296875 -19.109375 41.976562 -19.847656 41.34375 -20.484375 C 40.707031 -21.117188 39.945312 -21.4375 39.0625 -21.4375 L 11.109375 -21.4375 C 10.515625 -21.332031 9.96875 -21.035156 9.46875 -20.546875 C 8.832031 -19.910156 8.515625 -19.148438 8.515625 -18.265625 L 8.515625 0 L 4.234375 0 L 4.234375 -18.265625 C 4.234375 -20.273438 4.972656 -22.039062 6.453125 -23.5625 C 7.867188 -25.007812 9.632812 -25.734375 11.75 -25.734375 L 39.125 -25.734375 C 41.207031 -25.734375 42.953125 -25.007812 44.359375 -23.5625 C 45.835938 -22.039062 46.578125 -20.273438 46.578125 -18.265625 L 46.578125 0 Z M 42.296875 0 "/></g></g></g><g fill="#e8f038" fill-opacity="1"><g transform="translate(912.746004, 347.641343)"><g/></g></g><g fill="#e8f038" fill-opacity="1"><g transform="translate(944.508774, 347.641343)"><g><path d="M 52.890625 -25.671875 L 57.171875 -25.671875 L 57.171875 -7.46875 C 57.171875 -5.488281 56.429688 -3.722656 54.953125 -2.171875 C 53.535156 -0.722656 51.785156 0 49.703125 0 L 11.75 0 C 9.632812 0 7.867188 -0.722656 6.453125 -2.171875 C 4.972656 -3.648438 4.234375 -5.414062 4.234375 -7.46875 L 4.234375 -25.671875 L 8.515625 -25.671875 L 8.515625 -7.46875 C 8.515625 -6.582031 8.832031 -5.820312 9.46875 -5.1875 C 9.96875 -4.695312 10.515625 -4.394531 11.109375 -4.28125 L 28.59375 -4.28125 L 28.59375 -25.671875 L 32.875 -25.671875 L 32.828125 -4.28125 L 49.65625 -4.28125 C 50.539062 -4.28125 51.300781 -4.597656 51.9375 -5.234375 C 52.570312 -5.867188 52.890625 -6.613281 52.890625 -7.46875 Z M 52.890625 -25.671875 "/></g></g></g><g fill="#e8f038" fill-opacity="1"><g transform="translate(1005.916766, 347.641343)"><g><path d="M 44.359375 -23.5 C 45.835938 -21.988281 46.578125 -20.222656 46.578125 -18.203125 L 46.578125 0 L 42.296875 0 L 42.296875 -10.6875 L 8.515625 -10.6875 L 8.515625 0 L 4.234375 0 L 4.234375 -18.203125 C 4.234375 -20.222656 4.972656 -21.988281 6.453125 -23.5 C 7.867188 -24.945312 9.632812 -25.671875 11.75 -25.671875 L 39.125 -25.671875 C 41.207031 -25.671875 42.953125 -24.945312 44.359375 -23.5 Z M 42.296875 -14.984375 L 42.296875 -18.203125 C 42.296875 -19.054688 41.976562 -19.800781 41.34375 -20.4375 C 40.707031 -21.070312 39.945312 -21.390625 39.0625 -21.390625 L 11.109375 -21.390625 C 10.515625 -21.285156 9.96875 -20.984375 9.46875 -20.484375 C 8.832031 -19.847656 8.515625 -19.085938 8.515625 -18.203125 L 8.515625 -14.984375 Z M 42.296875 -14.984375 "/></g></g></g><g fill="#e8f038" fill-opacity="1"><g transform="translate(1056.737152, 347.641343)"><g><path d="M 42.296875 -25.671875 L 46.578125 -25.671875 L 46.578125 -7.359375 C 46.578125 -5.453125 45.835938 -3.722656 44.359375 -2.171875 C 42.953125 -0.722656 41.207031 0 39.125 0 L 11.75 0 C 9.664062 0 7.898438 -0.722656 6.453125 -2.171875 C 4.972656 -3.648438 4.234375 -5.414062 4.234375 -7.46875 L 8.515625 -7.46875 C 8.515625 -6.582031 8.832031 -5.820312 9.46875 -5.1875 C 10.101562 -4.550781 10.863281 -4.234375 11.75 -4.234375 L 39.0625 -4.234375 C 39.945312 -4.234375 40.707031 -4.550781 41.34375 -5.1875 C 41.976562 -5.820312 42.296875 -6.582031 42.296875 -7.46875 L 42.296875 -10.6875 L 11.75 -10.6875 C 9.664062 -10.6875 7.898438 -11.429688 6.453125 -12.921875 C 4.972656 -14.367188 4.234375 -16.128906 4.234375 -18.203125 L 4.234375 -25.671875 L 8.515625 -25.671875 L 8.515625 -18.203125 C 8.515625 -17.285156 8.832031 -16.53125 9.46875 -15.9375 C 10.101562 -15.300781 10.863281 -14.984375 11.75 -14.984375 L 42.296875 -14.984375 Z M 42.296875 -25.671875 "/></g></g></g></svg>